<svg xmlns="http://www.w3.org/2000/svg" version="1.1" xmlns:xlink="http://www.w3.org/1999/xlink" xmlns:svgjs="http://svgjs.dev/svgjs" width="1500" height="939" viewBox="0 0 1500 939"><g transform="matrix(1,0,0,1,-0.9090909090909918,-1.5145161290323017)"><svg viewBox="0 0 396 248" data-background-color="#333333" preserveAspectRatio="xMidYMid meet" height="939" width="1500" xmlns="http://www.w3.org/2000/svg" xmlns:xlink="http://www.w3.org/1999/xlink"><g id="tight-bounds" transform="matrix(1,0,0,1,0.2400000000000091,0.4000000000000057)"><svg viewBox="0 0 395.52 247.2" height="247.2" width="395.52"><g><svg></svg></g><g><svg viewBox="0 0 395.52 247.2" height="247.2" width="395.52"><g><path d="M55.039 247.2l26.403-45.732 7.584 0-22.403 38.804h262.274l-22.403-38.804 7.584 0 26.403 45.732zM197.76 0l26.403 45.732-7.583 0-18.82-32.596-18.82 32.596-7.583 0z" fill="#ffffff" fill-rule="nonzero" stroke="none" stroke-width="1" stroke-linecap="butt" stroke-linejoin="miter" stroke-miterlimit="10" stroke-dasharray="" stroke-dashoffset="0" font-family="none" font-weight="none" font-size="none" text-anchor="none" style="mix-blend-mode: normal" data-fill-palette-color="tertiary"></path></g><g transform="matrix(1,0,0,1,26.83685064935065,67.97999999999999)"><svg viewBox="0 0 341.8462987012987 111.24" height="111.24" width="341.8462987012987"><g><svg viewBox="0 0 341.8462987012987 111.24" height="111.24" width="341.8462987012987"><g><svg viewBox="0 0 341.8462987012987 111.24" height="111.24" width="341.8462987012987"><g><svg viewBox="0 0 341.8462987012987 111.24" height="111.24" width="341.8462987012987"><g id="textblocktransform"><svg viewBox="0 0 341.8462987012987 111.24" height="111.24" width="341.8462987012987" id="textblock"><g><svg viewBox="0 0 341.8462987012987 111.24" height="111.24" width="341.8462987012987"><g transform="matrix(1,0,0,1,0,0)"><svg width="341.8462987012987" viewBox="2.1911805611129997 -35.94 112.228819438887 36.53" height="111.24" data-palette-color="#ffffff"><path d="M13.38 0.59L13.38 0.59Q10.28 0.59 8.24 0.02 6.2-0.54 4.97-1.38 3.74-2.22 3.08-3.05L3.08-3.05Q2.86-3.37 2.69-3.66 2.51-3.96 2.44-4.32L2.44-4.32Q2.34-4.81 2.25-5.6 2.15-6.4 2.22-7.45L2.22-7.45Q2.25-7.89 2.39-8.06L2.39-8.06Q2.56-8.25 2.95-8.35L2.95-8.35Q3.66-8.52 4.8-8.65 5.93-8.79 6.42-8.79L6.42-8.79Q6.93-8.79 7.25-8.59 7.57-8.4 8.01-7.93L8.01-7.93Q8.5-7.42 9.69-6.63 10.89-5.83 13.38-5.83L13.38-5.83Q15.77-5.83 16.99-6.84 18.21-7.84 18.21-9.62L18.21-9.62Q18.21-10.57 17.64-11.41 17.07-12.26 15.55-13.1 14.04-13.94 11.23-14.87L11.23-14.87Q6.59-16.43 4.54-18.75 2.49-21.07 2.49-25.2L2.49-25.2Q2.49-28.61 4.15-30.91 5.81-33.2 8.74-34.38 11.67-35.55 15.5-35.55L15.5-35.55Q18.46-35.55 20.4-34.85 22.34-34.16 23.41-33.29 24.49-32.42 24.8-31.88L24.8-31.88Q25-31.57 25.06-31.41 25.12-31.25 25.15-30.98L25.15-30.98Q25.22-30.22 25.2-29.3 25.17-28.37 25.02-27.2L25.02-27.2Q24.95-26.81 24.76-26.66L24.76-26.66Q24.58-26.54 24.22-26.54L24.22-26.54Q21.85-26.49 20.56-26.78L20.56-26.78Q20.04-26.9 19.87-27.03 19.7-27.15 19.43-27.42L19.43-27.42Q19.04-27.88 18.2-28.5 17.36-29.13 15.5-29.13L15.5-29.13Q12.94-29.13 11.87-27.97 10.79-26.81 10.79-25.37L10.79-25.37Q10.79-23.66 12.38-22.69 13.96-21.73 17.38-20.51L17.38-20.51Q20.24-19.51 22.29-18.33 24.34-17.16 25.43-15.33 26.51-13.5 26.51-10.5L26.51-10.5Q26.51-6.76 24.79-4.3 23.07-1.83 20.1-0.62 17.14 0.59 13.38 0.59ZM37.89-2.27L37.89-2.27Q36.84-4.25 35.74-7.29 34.64-10.33 33.64-13.82 32.64-17.31 31.86-20.72 31.08-24.12 30.62-26.9 30.17-29.69 30.17-31.25L30.17-31.25Q30.17-31.88 30.44-32.25L30.44-32.25Q31-33.03 31.82-33.87 32.64-34.72 33.76-35.64L33.76-35.64Q34.13-35.94 34.45-35.94L34.45-35.94Q34.76-35.94 35.08-35.64L35.08-35.64Q36.23-34.72 37.03-33.87 37.84-33.03 38.4-32.25L38.4-32.25Q38.67-31.88 38.67-31.18L38.67-31.18 38.67-31.27Q38.67-29.66 39.1-26.92 39.52-24.17 40.22-20.91 40.92-17.65 41.73-14.49 42.55-11.33 43.36-8.86L43.36-8.86 43.5-8.86Q44.82-12.13 45.97-15.97 47.12-19.8 48.12-23.8 49.12-27.81 50-31.59L50-31.59Q50.27-32.69 50.91-33.12 51.56-33.54 52.95-33.54L52.95-33.54 55.88-33.54Q57.13-33.54 57.74-33.18 58.35-32.81 58.62-31.59L58.62-31.59Q59.25-28.76 60.06-25.61 60.86-22.46 61.73-19.35 62.6-16.24 63.49-13.53 64.38-10.82 65.18-8.86L65.18-8.86 65.33-8.86Q66.35-11.18 67.17-14.33 67.99-17.48 68.56-20.76 69.14-24.05 69.44-26.86 69.75-29.66 69.75-31.27L69.75-31.27 69.75-31.18Q69.75-31.88 69.99-32.25L69.99-32.25Q71.16-33.86 73.22-35.64L73.22-35.64Q73.61-35.94 73.9-35.94L73.9-35.94Q74.17-35.94 74.53-35.64L74.53-35.64Q75.63-34.72 76.41-33.87 77.19-33.03 77.76-32.25L77.76-32.25Q78-31.86 78-31.2L78-31.2Q78-29.15 77.54-26.27 77.07-23.39 76.28-20.13 75.49-16.87 74.5-13.62 73.51-10.38 72.42-7.56 71.34-4.74 70.29-2.78L70.29-2.78Q69.41-1.15 68.71-0.57 68.02 0 66.72 0L66.72 0 63.72 0Q62.62 0 61.87-0.49 61.13-0.98 60.32-2.32L60.32-2.32Q59.71-3.34 58.92-5.2 58.13-7.06 57.33-9.24 56.54-11.43 55.91-13.48 55.27-15.53 54.98-16.94L54.98-16.94Q54.64-18.55 54.4-20.06 54.17-21.56 54.12-22.41L54.12-22.41 53.93-22.41Q53.88-21.56 53.62-20.06 53.37-18.55 53-16.94L53-16.94Q52.63-15.33 52.02-13.26 51.41-11.18 50.68-9.08 49.95-6.98 49.22-5.2 48.48-3.42 47.85-2.37L47.85-2.37Q47.14-1.17 46.3-0.59 45.46 0 43.97 0L43.97 0 41.21 0Q39.91 0 39.26-0.46 38.6-0.93 37.89-2.27ZM78-31.27L78-31.27 78-31.18 78-31.2Q78-31.25 78-31.27ZM30.17-31.18L30.17-31.27 30.17-31.25 30.17-31.18ZM96.89 0L89.4 0Q86.88 0 85.58-0.63 84.27-1.27 83.82-2.71 83.37-4.15 83.37-6.54L83.37-6.54 83.37-28.47Q83.37-30.91 83.82-32.34 84.27-33.76 85.58-34.39 86.88-35.01 89.4-35.01L89.4-35.01 96.89-35.01Q102.14-35.01 106.09-33.45 110.03-31.88 112.23-28.16 114.42-24.44 114.42-17.94L114.42-17.94Q114.42-11.45 112.23-7.51 110.03-3.56 106.09-1.78 102.14 0 96.89 0L96.89 0ZM95.11-28.59L94.04-28.59Q92.43-28.59 91.84-27.91 91.25-27.22 91.25-25.56L91.25-25.56 91.25-9.45Q91.25-7.81 91.84-7.1 92.43-6.4 94.04-6.4L94.04-6.4 95.16-6.4Q100.39-6.4 103.25-8.96 106.12-11.52 106.12-17.85L106.12-17.85Q106.12-22.07 104.82-24.4 103.51-26.73 101.04-27.66 98.58-28.59 95.11-28.59L95.11-28.59Z" opacity="1" transform="matrix(1,0,0,1,0,0)" fill="#ffffff" class="wordmark-text-0" data-fill-palette-color="primary" id="text-0"></path></svg></g></svg></g></svg></g></svg></g></svg></g></svg></g></svg></g></svg></g><defs></defs></svg><rect width="395.52" height="247.2" fill="none" stroke="none" visibility="hidden"></rect></g></svg></g></svg>